<mxfile host="app.diagrams.net" modified="2021-04-16T01:08:36.107Z" agent="5.0 (Windows NT 10.0; Win64; x64) AppleWebKit/537.36 (KHTML, like Gecko) Chrome/89.0.4389.128 Safari/537.36" etag="C16l3CCH1H_wnVFhfKbz" version="14.4.4" type="github">
  <diagram id="-g5lU18gktE1e8Ps9vkl" name="Page-1">
    <mxGraphModel dx="1718" dy="1550" grid="1" gridSize="10" guides="1" tooltips="1" connect="1" arrows="1" fold="1" page="1" pageScale="1" pageWidth="850" pageHeight="1100" math="0" shadow="0">
      <root>
        <mxCell id="0" />
        <mxCell id="1" parent="0" />
        <mxCell id="jfAC8rqVL113YkVz1IvF-15" style="edgeStyle=orthogonalEdgeStyle;rounded=0;orthogonalLoop=1;jettySize=auto;html=1;entryX=0.5;entryY=0;entryDx=0;entryDy=0;endArrow=open;endFill=0;endSize=12;" parent="1" source="jfAC8rqVL113YkVz1IvF-1" target="jfAC8rqVL113YkVz1IvF-5" edge="1">
          <mxGeometry relative="1" as="geometry" />
        </mxCell>
        <mxCell id="jfAC8rqVL113YkVz1IvF-16" value="*" style="edgeLabel;html=1;align=center;verticalAlign=middle;resizable=0;points=[];fontSize=18;" parent="jfAC8rqVL113YkVz1IvF-15" vertex="1" connectable="0">
          <mxGeometry x="-0.2368" y="1" relative="1" as="geometry">
            <mxPoint x="-21" y="38" as="offset" />
          </mxGeometry>
        </mxCell>
        <mxCell id="jfAC8rqVL113YkVz1IvF-17" value="&lt;font style=&quot;font-size: 11px&quot;&gt;- departments&lt;/font&gt;" style="edgeLabel;html=1;align=center;verticalAlign=middle;resizable=0;points=[];fontSize=18;" parent="jfAC8rqVL113YkVz1IvF-15" vertex="1" connectable="0">
          <mxGeometry x="-0.3684" y="1" relative="1" as="geometry">
            <mxPoint x="49" y="45" as="offset" />
          </mxGeometry>
        </mxCell>
        <mxCell id="jfAC8rqVL113YkVz1IvF-1" value="SabanaPayroll" style="swimlane;fontStyle=1;align=center;verticalAlign=top;childLayout=stackLayout;horizontal=1;startSize=26;horizontalStack=0;resizeParent=1;resizeParentMax=0;resizeLast=0;collapsible=1;marginBottom=0;" parent="1" vertex="1">
          <mxGeometry x="125" y="-50" width="450" height="150" as="geometry" />
        </mxCell>
        <mxCell id="B2Lk9kadIfUQsaExoejS-2" value="&amp;nbsp;- employeeid: UUID&lt;br&gt;&amp;nbsp;- name: String" style="text;html=1;align=left;verticalAlign=middle;resizable=0;points=[];autosize=1;" parent="jfAC8rqVL113YkVz1IvF-1" vertex="1">
          <mxGeometry y="26" width="450" height="30" as="geometry" />
        </mxCell>
        <mxCell id="jfAC8rqVL113YkVz1IvF-3" value="" style="line;strokeWidth=1;fillColor=none;align=left;verticalAlign=middle;spacingTop=-1;spacingLeft=3;spacingRight=3;rotatable=0;labelPosition=right;points=[];portConstraint=eastwest;" parent="jfAC8rqVL113YkVz1IvF-1" vertex="1">
          <mxGeometry y="56" width="450" height="4" as="geometry" />
        </mxCell>
        <mxCell id="jfAC8rqVL113YkVz1IvF-4" value="+ addDepartment(d: Department): boolean&#xa;+ calculateEmployeeSalary(employeeId: UUID): double&#xa;+ calculateDepartmentSalaries(departmentId: UUID): double&#xa;+ calculateUniversitySalaries(): double&#xa;+ printPayroll(): void&#xa;+ assigneFamilyCompesation(uuid: UUID, fcf: IFamlyCompesationFund): boolean" style="text;strokeColor=none;fillColor=none;align=left;verticalAlign=top;spacingLeft=4;spacingRight=4;overflow=hidden;rotatable=0;points=[[0,0.5],[1,0.5]];portConstraint=eastwest;" parent="jfAC8rqVL113YkVz1IvF-1" vertex="1">
          <mxGeometry y="60" width="450" height="90" as="geometry" />
        </mxCell>
        <mxCell id="jfAC8rqVL113YkVz1IvF-14" style="edgeStyle=orthogonalEdgeStyle;rounded=0;orthogonalLoop=1;jettySize=auto;html=1;entryX=0.5;entryY=0;entryDx=0;entryDy=0;endArrow=open;endFill=0;endSize=12;startArrow=open;startFill=0;targetPerimeterSpacing=0;startSize=12;" parent="1" source="jfAC8rqVL113YkVz1IvF-5" target="jfAC8rqVL113YkVz1IvF-9" edge="1">
          <mxGeometry relative="1" as="geometry" />
        </mxCell>
        <mxCell id="jfAC8rqVL113YkVz1IvF-5" value="Department" style="swimlane;fontStyle=1;align=center;verticalAlign=top;childLayout=stackLayout;horizontal=1;startSize=26;horizontalStack=0;resizeParent=1;resizeParentMax=0;resizeLast=0;collapsible=1;marginBottom=0;" parent="1" vertex="1">
          <mxGeometry x="235" y="200" width="230" height="150" as="geometry" />
        </mxCell>
        <mxCell id="jfAC8rqVL113YkVz1IvF-6" value="+ id: UUID&#xa;+ name: String" style="text;strokeColor=none;fillColor=none;align=left;verticalAlign=top;spacingLeft=4;spacingRight=4;overflow=hidden;rotatable=0;points=[[0,0.5],[1,0.5]];portConstraint=eastwest;" parent="jfAC8rqVL113YkVz1IvF-5" vertex="1">
          <mxGeometry y="26" width="230" height="32" as="geometry" />
        </mxCell>
        <mxCell id="jfAC8rqVL113YkVz1IvF-7" value="" style="line;strokeWidth=1;fillColor=none;align=left;verticalAlign=middle;spacingTop=-1;spacingLeft=3;spacingRight=3;rotatable=0;labelPosition=right;points=[];portConstraint=eastwest;" parent="jfAC8rqVL113YkVz1IvF-5" vertex="1">
          <mxGeometry y="58" width="230" height="8" as="geometry" />
        </mxCell>
        <mxCell id="jfAC8rqVL113YkVz1IvF-8" value="+ _(name): Department&#xa;+ getName(): String&#xa;+ getId(): UUID&#xa;+ addEmployee(): boolean&#xa;+ calculateDepartmentSalaries(): double" style="text;strokeColor=none;fillColor=none;align=left;verticalAlign=top;spacingLeft=4;spacingRight=4;overflow=hidden;rotatable=0;points=[[0,0.5],[1,0.5]];portConstraint=eastwest;" parent="jfAC8rqVL113YkVz1IvF-5" vertex="1">
          <mxGeometry y="66" width="230" height="84" as="geometry" />
        </mxCell>
        <mxCell id="jfAC8rqVL113YkVz1IvF-9" value="Employee" style="swimlane;fontStyle=1;align=center;verticalAlign=top;childLayout=stackLayout;horizontal=1;startSize=26;horizontalStack=0;resizeParent=1;resizeParentMax=0;resizeLast=0;collapsible=1;marginBottom=0;" parent="1" vertex="1">
          <mxGeometry x="235" y="460" width="230" height="140" as="geometry" />
        </mxCell>
        <mxCell id="jfAC8rqVL113YkVz1IvF-10" value="+ id: UUID&#xa;+ name: String&#xa;+ lastname: String" style="text;strokeColor=none;fillColor=none;align=left;verticalAlign=top;spacingLeft=4;spacingRight=4;overflow=hidden;rotatable=0;points=[[0,0.5],[1,0.5]];portConstraint=eastwest;" parent="jfAC8rqVL113YkVz1IvF-9" vertex="1">
          <mxGeometry y="26" width="230" height="44" as="geometry" />
        </mxCell>
        <mxCell id="jfAC8rqVL113YkVz1IvF-11" value="" style="line;strokeWidth=1;fillColor=none;align=left;verticalAlign=middle;spacingTop=-1;spacingLeft=3;spacingRight=3;rotatable=0;labelPosition=right;points=[];portConstraint=eastwest;" parent="jfAC8rqVL113YkVz1IvF-9" vertex="1">
          <mxGeometry y="70" width="230" height="8" as="geometry" />
        </mxCell>
        <mxCell id="jfAC8rqVL113YkVz1IvF-12" value="+ calculateSalary(): double&#xa;+ getId(): UUID&#xa;+ getDepartment(): Department&#xa;+ toString(): String" style="text;strokeColor=none;fillColor=none;align=left;verticalAlign=top;spacingLeft=4;spacingRight=4;overflow=hidden;rotatable=0;points=[[0,0.5],[1,0.5]];portConstraint=eastwest;" parent="jfAC8rqVL113YkVz1IvF-9" vertex="1">
          <mxGeometry y="78" width="230" height="62" as="geometry" />
        </mxCell>
        <mxCell id="jfAC8rqVL113YkVz1IvF-18" value="&lt;font style=&quot;font-size: 11px&quot;&gt;- employees&lt;/font&gt;" style="edgeLabel;html=1;align=center;verticalAlign=middle;resizable=0;points=[];fontSize=18;" parent="1" vertex="1" connectable="0">
          <mxGeometry x="400" y="300" as="geometry">
            <mxPoint x="-8" y="134" as="offset" />
          </mxGeometry>
        </mxCell>
        <mxCell id="jfAC8rqVL113YkVz1IvF-19" value="*" style="edgeLabel;html=1;align=center;verticalAlign=middle;resizable=0;points=[];fontSize=18;" parent="1" vertex="1" connectable="0">
          <mxGeometry x="350" y="275" as="geometry">
            <mxPoint x="-16" y="163" as="offset" />
          </mxGeometry>
        </mxCell>
        <mxCell id="Hbh9BmlN1RRa2NNKyF0--15" style="edgeStyle=orthogonalEdgeStyle;rounded=0;orthogonalLoop=1;jettySize=auto;html=1;entryX=0.248;entryY=1;entryDx=0;entryDy=0;entryPerimeter=0;endArrow=block;endFill=0;endSize=12;" parent="1" source="Hbh9BmlN1RRa2NNKyF0--1" target="jfAC8rqVL113YkVz1IvF-12" edge="1">
          <mxGeometry relative="1" as="geometry" />
        </mxCell>
        <mxCell id="Hbh9BmlN1RRa2NNKyF0--1" value="EmployeeForHours" style="swimlane;fontStyle=1;align=center;verticalAlign=top;childLayout=stackLayout;horizontal=1;startSize=26;horizontalStack=0;resizeParent=1;resizeParentMax=0;resizeLast=0;collapsible=1;marginBottom=0;" parent="1" vertex="1">
          <mxGeometry x="-190" y="700" width="335" height="110" as="geometry" />
        </mxCell>
        <mxCell id="Hbh9BmlN1RRa2NNKyF0--2" value="+ HOUR_VALUE: double&#xa;- hours: double" style="text;strokeColor=none;fillColor=none;align=left;verticalAlign=top;spacingLeft=4;spacingRight=4;overflow=hidden;rotatable=0;points=[[0,0.5],[1,0.5]];portConstraint=eastwest;" parent="Hbh9BmlN1RRa2NNKyF0--1" vertex="1">
          <mxGeometry y="26" width="335" height="34" as="geometry" />
        </mxCell>
        <mxCell id="Hbh9BmlN1RRa2NNKyF0--3" value="" style="line;strokeWidth=1;fillColor=none;align=left;verticalAlign=middle;spacingTop=-1;spacingLeft=3;spacingRight=3;rotatable=0;labelPosition=right;points=[];portConstraint=eastwest;" parent="Hbh9BmlN1RRa2NNKyF0--1" vertex="1">
          <mxGeometry y="60" width="335" height="8" as="geometry" />
        </mxCell>
        <mxCell id="Hbh9BmlN1RRa2NNKyF0--4" value="+ _(name, lastname, department, hours): EmployeeForHours&#xa;+ getSalary(): double" style="text;strokeColor=none;fillColor=none;align=left;verticalAlign=top;spacingLeft=4;spacingRight=4;overflow=hidden;rotatable=0;points=[[0,0.5],[1,0.5]];portConstraint=eastwest;" parent="Hbh9BmlN1RRa2NNKyF0--1" vertex="1">
          <mxGeometry y="68" width="335" height="42" as="geometry" />
        </mxCell>
        <mxCell id="Hbh9BmlN1RRa2NNKyF0--13" style="edgeStyle=orthogonalEdgeStyle;rounded=0;orthogonalLoop=1;jettySize=auto;html=1;exitX=0.5;exitY=0;exitDx=0;exitDy=0;entryX=0.5;entryY=0.98;entryDx=0;entryDy=0;entryPerimeter=0;endArrow=block;endFill=0;endSize=12;" parent="1" source="Hbh9BmlN1RRa2NNKyF0--5" target="jfAC8rqVL113YkVz1IvF-12" edge="1">
          <mxGeometry relative="1" as="geometry">
            <Array as="points">
              <mxPoint x="350" y="640" />
              <mxPoint x="350" y="640" />
            </Array>
          </mxGeometry>
        </mxCell>
        <mxCell id="Hbh9BmlN1RRa2NNKyF0--5" value="EmployeeForSalary" style="swimlane;fontStyle=1;align=center;verticalAlign=top;childLayout=stackLayout;horizontal=1;startSize=26;horizontalStack=0;resizeParent=1;resizeParentMax=0;resizeLast=0;collapsible=1;marginBottom=0;" parent="1" vertex="1">
          <mxGeometry x="180" y="700" width="340" height="170" as="geometry" />
        </mxCell>
        <mxCell id="Hbh9BmlN1RRa2NNKyF0--6" value="- HEALTH_BENEFIT: double&#xa;- PENSION_BENEFIT: double&#xa;- baseSalary: double&#xa;- salary: double" style="text;strokeColor=none;fillColor=none;align=left;verticalAlign=top;spacingLeft=4;spacingRight=4;overflow=hidden;rotatable=0;points=[[0,0.5],[1,0.5]];portConstraint=eastwest;" parent="Hbh9BmlN1RRa2NNKyF0--5" vertex="1">
          <mxGeometry y="26" width="340" height="64" as="geometry" />
        </mxCell>
        <mxCell id="Hbh9BmlN1RRa2NNKyF0--7" value="" style="line;strokeWidth=1;fillColor=none;align=left;verticalAlign=middle;spacingTop=-1;spacingLeft=3;spacingRight=3;rotatable=0;labelPosition=right;points=[];portConstraint=eastwest;" parent="Hbh9BmlN1RRa2NNKyF0--5" vertex="1">
          <mxGeometry y="90" width="340" height="8" as="geometry" />
        </mxCell>
        <mxCell id="Hbh9BmlN1RRa2NNKyF0--8" value="+ _(name, lastname, department, salary): EmployeeForSalary&#xa;+ getSalary(): double&#xa;+ getHealthDiscount(): double&#xa;+ getPensionDiscount" style="text;strokeColor=none;fillColor=none;align=left;verticalAlign=top;spacingLeft=4;spacingRight=4;overflow=hidden;rotatable=0;points=[[0,0.5],[1,0.5]];portConstraint=eastwest;" parent="Hbh9BmlN1RRa2NNKyF0--5" vertex="1">
          <mxGeometry y="98" width="340" height="72" as="geometry" />
        </mxCell>
        <mxCell id="Hbh9BmlN1RRa2NNKyF0--14" style="edgeStyle=orthogonalEdgeStyle;rounded=0;orthogonalLoop=1;jettySize=auto;html=1;entryX=0.765;entryY=1.02;entryDx=0;entryDy=0;entryPerimeter=0;endArrow=block;endFill=0;endSize=12;" parent="1" source="Hbh9BmlN1RRa2NNKyF0--9" target="jfAC8rqVL113YkVz1IvF-12" edge="1">
          <mxGeometry relative="1" as="geometry">
            <Array as="points">
              <mxPoint x="740" y="660" />
              <mxPoint x="411" y="660" />
            </Array>
          </mxGeometry>
        </mxCell>
        <mxCell id="Hbh9BmlN1RRa2NNKyF0--9" value="EmpoyeeForComission" style="swimlane;fontStyle=1;align=center;verticalAlign=top;childLayout=stackLayout;horizontal=1;startSize=26;horizontalStack=0;resizeParent=1;resizeParentMax=0;resizeLast=0;collapsible=1;marginBottom=0;" parent="1" vertex="1">
          <mxGeometry x="560" y="700" width="360" height="110" as="geometry" />
        </mxCell>
        <mxCell id="Hbh9BmlN1RRa2NNKyF0--10" value="+ COMISSION_VALUE: double&#xa;- sales: int" style="text;strokeColor=none;fillColor=none;align=left;verticalAlign=top;spacingLeft=4;spacingRight=4;overflow=hidden;rotatable=0;points=[[0,0.5],[1,0.5]];portConstraint=eastwest;" parent="Hbh9BmlN1RRa2NNKyF0--9" vertex="1">
          <mxGeometry y="26" width="360" height="34" as="geometry" />
        </mxCell>
        <mxCell id="Hbh9BmlN1RRa2NNKyF0--11" value="" style="line;strokeWidth=1;fillColor=none;align=left;verticalAlign=middle;spacingTop=-1;spacingLeft=3;spacingRight=3;rotatable=0;labelPosition=right;points=[];portConstraint=eastwest;" parent="Hbh9BmlN1RRa2NNKyF0--9" vertex="1">
          <mxGeometry y="60" width="360" height="8" as="geometry" />
        </mxCell>
        <mxCell id="Hbh9BmlN1RRa2NNKyF0--12" value="+ _(name, lastname, department. sales): EmployeeForComission&#xa;+ getSalary(): double" style="text;strokeColor=none;fillColor=none;align=left;verticalAlign=top;spacingLeft=4;spacingRight=4;overflow=hidden;rotatable=0;points=[[0,0.5],[1,0.5]];portConstraint=eastwest;" parent="Hbh9BmlN1RRa2NNKyF0--9" vertex="1">
          <mxGeometry y="68" width="360" height="42" as="geometry" />
        </mxCell>
        <mxCell id="Hbh9BmlN1RRa2NNKyF0--16" value="1&amp;nbsp; &amp;nbsp;" style="text;html=1;align=center;verticalAlign=middle;resizable=0;points=[];autosize=1;" parent="1" vertex="1">
          <mxGeometry x="325" y="360" width="30" height="20" as="geometry" />
        </mxCell>
        <mxCell id="Hbh9BmlN1RRa2NNKyF0--18" value="&lt;font style=&quot;font-size: 11px&quot;&gt;- department&amp;nbsp; &amp;nbsp;&lt;/font&gt;" style="text;html=1;align=center;verticalAlign=middle;resizable=0;points=[];autosize=1;" parent="1" vertex="1">
          <mxGeometry x="355" y="360" width="90" height="20" as="geometry" />
        </mxCell>
      </root>
    </mxGraphModel>
  </diagram>
</mxfile>
